<svg width="64" height="61" viewBox="0 0 64 61" fill="none" xmlns="http://www.w3.org/2000/svg">
<g clip-path="url(#clip0_1_2)">
<path d="M45.247 12.516L33.446 0.609994C33.25 0.414994 33.017 0.260999 32.761 0.155999C32.504 0.0509994 32.23 -0.00200648 31.953 -6.4774e-06C31.401 0.00199352 30.872 0.220994 30.481 0.609994L0.612 30.374C0.22 30.768 0 31.301 0 31.857C0 32.412 0.22 32.946 0.612 33.34L12.517 45.245C12.714 45.44 12.947 45.594 13.203 45.699C13.459 45.804 13.734 45.857 14.011 45.855C14.562 45.853 15.091 45.634 15.483 45.245L21.436 39.292L39.294 21.434L45.247 15.481C45.639 15.087 45.859 14.554 45.859 13.998C45.859 13.443 45.639 12.91 45.247 12.516ZM37.801 16.975L36.307 15.481C35.913 15.09 35.38 14.87 34.824 14.87C34.269 14.87 33.735 15.09 33.341 15.481C33.144 15.677 32.988 15.91 32.881 16.166C32.774 16.422 32.719 16.697 32.719 16.975C32.719 17.253 32.774 17.527 32.881 17.784C32.988 18.04 33.144 18.273 33.341 18.468L34.835 19.962L31.848 22.928L27.389 18.468C26.986 18.124 26.469 17.944 25.939 17.964C25.41 17.985 24.908 18.204 24.533 18.579C24.158 18.953 23.939 19.455 23.918 19.985C23.898 20.514 24.078 21.032 24.423 21.434L28.882 25.893L25.895 28.88L24.423 27.387C24.027 26.991 23.489 26.768 22.929 26.768C22.369 26.768 21.832 26.991 21.436 27.387C21.04 27.783 20.817 28.32 20.817 28.88C20.817 29.441 21.04 29.978 21.436 30.374L22.929 31.846L19.963 34.833L15.483 30.374C15.089 29.982 14.556 29.762 14 29.762C13.444 29.762 12.911 29.982 12.517 30.374C12.125 30.768 11.906 31.301 11.906 31.857C11.906 32.412 12.125 32.946 12.517 33.34L16.976 37.799L14.011 40.786L5.07098 31.846L31.848 5.06899L40.788 14.009L37.801 16.975Z" fill="#FF3343"/>
<path d="M23.1381 61H61.0001C61.5581 61 62.0931 60.778 62.4871 60.384C62.8821 59.989 63.1041 59.454 63.1041 58.897V21.034C63.1041 20.477 62.8821 19.942 62.4871 19.547C62.0931 19.153 61.5581 18.931 61.0001 18.931H48.3791C47.8221 18.931 47.2861 19.153 46.8921 19.547C46.4981 19.942 46.2761 20.477 46.2761 21.034V44.172H23.1381C22.5801 44.172 22.0451 44.394 21.6511 44.788C21.2561 45.183 21.035 45.718 21.035 46.276V58.897C21.035 59.454 21.2561 59.989 21.6511 60.384C22.0451 60.778 22.5801 61 23.1381 61ZM25.2411 48.379H29.4481V50.483C29.4481 51.041 29.6701 51.576 30.0641 51.97C30.4591 52.365 30.9941 52.586 31.5521 52.586C32.1101 52.586 32.6451 52.365 33.0391 51.97C33.4341 51.576 33.6551 51.041 33.6551 50.483V48.379H37.8621V50.483C37.8621 51.041 38.0841 51.576 38.4781 51.97C38.8731 52.365 39.4081 52.586 39.9661 52.586C40.5231 52.586 41.0581 52.365 41.4531 51.97C41.8471 51.576 42.069 51.041 42.069 50.483V48.379H46.2761V50.483C46.2761 51.041 46.4981 51.576 46.8921 51.97C47.2861 52.365 47.8221 52.586 48.3791 52.586C48.9371 52.586 49.4721 52.365 49.8671 51.97C50.2611 51.576 50.483 51.041 50.483 50.483V48.379H52.5861C53.1441 48.379 53.679 48.158 54.074 47.763C54.468 47.369 54.6901 46.834 54.6901 46.276C54.6901 45.718 54.468 45.183 54.074 44.788C53.679 44.394 53.1441 44.172 52.5861 44.172H50.483V39.966H52.5861C53.1441 39.966 53.679 39.744 54.074 39.349C54.468 38.955 54.6901 38.42 54.6901 37.862C54.6901 37.304 54.468 36.769 54.074 36.375C53.679 35.98 53.1441 35.759 52.5861 35.759H50.483V31.552H52.5861C53.1441 31.552 53.679 31.33 54.074 30.936C54.468 30.541 54.6901 30.006 54.6901 29.448C54.6901 28.89 54.468 28.355 54.074 27.961C53.679 27.566 53.1441 27.345 52.5861 27.345H50.483V23.138H58.897V56.793H25.2411V48.379Z" fill="#FF3343"/>
</g>
<defs>
<clipPath id="clip0_1_2">
<rect width="64" height="61.0001" fill="white"/>
</clipPath>
</defs>
</svg>
