<svg width="44" height="55" viewBox="0 0 44 55" fill="none" xmlns="http://www.w3.org/2000/svg">
<path d="M25.051 33.0206H14.2832C13.5695 33.0206 12.8847 33.3041 12.3802 33.8092C11.8756 34.3144 11.5917 34.9998 11.5917 35.7142C11.5917 36.4287 11.8756 37.1141 12.3802 37.6193C12.8847 38.1244 13.5695 38.4079 14.2832 38.4079H25.051C25.7656 38.4079 26.4503 38.1244 26.9549 37.6193C27.4594 37.1141 27.7433 36.4287 27.7433 35.7142C27.7433 34.9998 27.4594 34.3144 26.9549 33.8092C26.4503 33.3041 25.7656 33.0206 25.051 33.0206ZM35.8187 6.08365H32.6429C32.0874 4.51159 31.0598 3.15061 29.7009 2.1853C28.3411 1.22087 26.7176 0.700674 25.051 0.696259H19.668C18.0014 0.700674 16.3779 1.22087 15.0181 2.1853C13.6591 3.15061 12.6316 4.51159 12.076 6.08365H8.90022C6.75809 6.08365 4.70389 6.93502 3.18937 8.45056C1.67485 9.96609 0.823975 12.0212 0.823975 14.1647V46.489C0.823975 48.6325 1.67485 50.6876 3.18937 52.2032C4.70389 53.7187 6.75809 54.5701 8.90022 54.5701H35.8187C37.9609 54.5701 40.0151 53.7187 41.5296 52.2032C43.0441 50.6876 43.895 48.6325 43.895 46.489V14.1647C43.895 12.0212 43.0441 9.96609 41.5296 8.45056C40.0151 6.93502 37.9609 6.08365 35.8187 6.08365ZM16.9756 8.77733C16.9756 8.06284 17.2595 7.37749 17.7641 6.87232C18.2686 6.36714 18.9533 6.08365 19.668 6.08365H25.051C25.7656 6.08365 26.4503 6.36714 26.9549 6.87232C27.4594 7.37749 27.7433 8.06284 27.7433 8.77733V11.471H16.9756V8.77733ZM38.5111 46.489C38.5111 47.2035 38.2272 47.8889 37.7226 48.394C37.2181 48.8992 36.5334 49.1827 35.8187 49.1827H8.90022C8.18559 49.1827 7.50086 48.8992 6.99632 48.394C6.49177 47.8889 6.20785 47.2035 6.20785 46.489V14.1647C6.20785 13.4502 6.49177 12.7649 6.99632 12.2597C7.50086 11.7545 8.18559 11.471 8.90022 11.471H11.5917V14.1647C11.5917 14.8792 11.8756 15.5646 12.3802 16.0697C12.8847 16.5749 13.5695 16.8584 14.2832 16.8584H30.4357C31.1495 16.8584 31.8342 16.5749 32.3388 16.0697C32.8433 15.5646 33.1272 14.8792 33.1272 14.1647V11.471H35.8187C36.5334 11.471 37.2181 11.7545 37.7226 12.2597C38.2272 12.7649 38.5111 13.4502 38.5111 14.1647V46.489ZM30.4357 22.2458H14.2832C13.5695 22.2458 12.8847 22.5293 12.3802 23.0345C11.8756 23.5396 11.5917 24.225 11.5917 24.9395C11.5917 25.654 11.8756 26.3393 12.3802 26.8445C12.8847 27.3497 13.5695 27.6332 14.2832 27.6332H30.4357C31.1495 27.6332 31.8342 27.3497 32.3388 26.8445C32.8433 26.3393 33.1272 25.654 33.1272 24.9395C33.1272 24.225 32.8433 23.5396 32.3388 23.0345C31.8342 22.5293 31.1495 22.2458 30.4357 22.2458Z" fill="black"/>
</svg>
